<svg xmlns="http://www.w3.org/2000/svg" width="2287.0159" height="1288.1837" viewBox="0 0 2287.0159 1288.1837"><title>android</title><path class="a" d="M1704.7659,388.8452,1895.3505,59.0509a39.6085,39.6085,0,0,0-68.5-39.7742L1634.0563,352.9379a1193.6569,1193.6569,0,0,0-978.887,0L462.375,19.2766a39.6085,39.6085,0,0,0-68.5,39.7742L584.46,388.8452C255.77,566.7241,32.5927,897.6233,0,1288.1837H2287.0159c-32.5927-390.56-256.3225-721.46-582.25-899.3386ZM617.6047,962.2564A95.0162,95.0162,0,1,1,712.6208,867.24h0A95.0162,95.0162,0,0,1,617.6047,962.2564Zm1052.9111,0A95.0161,95.0161,0,1,1,1765.532,867.24a95.016,95.016,0,0,1-95.0162,95.0161Z"/></svg>