<svg id="Capa_1" data-name="Capa 1" xmlns="http://www.w3.org/2000/svg" width="327.137" height="440.015" viewBox="0 0 327.137 440.015"><defs><style>.cls-1{fill:#3f3e3d;}.cls-2{fill:#332f2a;}.cls-3{fill:#fccc44;}.cls-4{fill:#f4bf3b;}.cls-5{fill:#e0e0e0;}.cls-6{fill:#cecece;}.cls-7{fill:#a64c31;}.cls-8{fill:#8a3e25;}.cls-9{fill:#c05939;}</style></defs><title>coffee-cup</title><path class="cls-1" d="M250.367,440.015H76.77a31.1886,31.1886,0,0,1-31.121-29.138L22.404,57.941H304.733L281.488,410.877A31.1886,31.1886,0,0,1,250.367,440.015Z"/><path class="cls-2" d="M238.478,57.941l-19.007,288.58a31.187,31.187,0,0,1-31.12,29.138H43.33l2.32,35.218a31.1877,31.1877,0,0,0,31.12,29.138H250.367a31.1886,31.1886,0,0,0,31.121-29.138L304.733,57.941Z"/><path class="cls-3" d="M41.931,315.403H285.205a8.3251,8.3251,0,0,0,8.307-7.778L302.491,171.3a8.3249,8.3249,0,0,0-8.307-8.872H32.953a8.3255,8.3255,0,0,0-8.307,8.872l8.979,136.325a8.3242,8.3242,0,0,0,8.306,7.778Z"/><path class="cls-4" d="M294.184,162.428H231.596L221.521,315.404h63.684a8.3251,8.3251,0,0,0,8.307-7.778l8.979-136.325a8.3246,8.3246,0,0,0-8.307-8.873Z"/><path class="cls-5" d="M297.637,62.185H29.499l4.079-43.683A20.3986,20.3986,0,0,1,53.888,0H273.249a20.3978,20.3978,0,0,1,20.31,18.501Z"/><path class="cls-6" d="M293.558,18.501A20.3975,20.3975,0,0,0,273.249,0H242.67l1.826,19.554a14.4034,14.4034,0,0,1-14.341,15.743H32.01L29.499,62.185H297.637Z"/><ellipse class="cls-7" cx="152.88" cy="257.56" rx="42.573" ry="29.65"/><path class="cls-8" d="M162.469,228.674c6.07,5.125,9.716,11.693,9.716,18.855,0,16.375-19.061,29.65-42.573,29.65a60.492,60.492,0,0,1-9.589-.765c7.809,6.593,19.628,10.795,32.857,10.795,23.513,0,42.573-13.275,42.573-29.65C195.454,243.482,181.362,231.705,162.469,228.674Z"/><ellipse class="cls-9" cx="172.0595" cy="230.1341" rx="29.6382" ry="42.5561" transform="translate(-103.894 150.0352) rotate(-37.0304)"/><path class="cls-7" d="M195.856,212.3c-10.646-14.112-25.765-21.694-38.169-20.399,8.323,3.172,16.639,9.407,23.236,18.152,14.16,18.771,15.041,41.982,1.969,51.844a22.0677,22.0677,0,0,1-11.14,4.268c9.541,3.636,19.091,3.246,26.073-2.022C210.897,254.282,210.016,231.071,195.856,212.3Z"/><path class="cls-5" d="M321.137,82.914H6a6,6,0,0,1-6-6V54.672a6,6,0,0,1,6-6H321.137a6,6,0,0,1,6,6V76.914A6,6,0,0,1,321.137,82.914Z"/><path class="cls-6" d="M320.958,48.672H275.377V61.2a4.0313,4.0313,0,0,1-4.031,4.031H0V76.736a6.1784,6.1784,0,0,0,6.179,6.179H320.958a6.1784,6.1784,0,0,0,6.179-6.179V54.851A6.1791,6.1791,0,0,0,320.958,48.672Z"/></svg>