<svg xmlns="http://www.w3.org/2000/svg" width="509.828" height="484.75" viewBox="0 0 509.828 484.75"><defs><style>.b{fill:#f18800;}.c{fill:#78c6bf;}.d{fill:#fef8c6;}.e{fill:#554696;}.f{fill:#f092bd;}.g{fill:#6fcaf2;}.h{fill:#fff;}</style></defs><g class="a" transform="translate(-0.062)"><path class="b" d="M257.89,187.74A161.48,161.48,0,0,1,416,174.65c.35-4.34.54-8.72.54-13.15a161.5,161.5,0,0,0-323,0q0,5.94.43,11.76a163.64,163.64,0,0,1,164,14.48Z"/><path class="c" d="M187.15,321.25q0-6.53.52-12.92A161.57,161.57,0,0,1,93.93,173.26a163.52,163.52,0,1,0,164,281.5,161.18,161.18,0,0,1-70.78-133.51Z"/><path class="d" d="M187.67,308.33a161.19,161.19,0,0,1,70.22-120.59,163.64,163.64,0,0,0-164-14.48,161.57,161.57,0,0,0,93.78,135.07Z"/><path class="e" d="M416,174.64a161.54,161.54,0,0,1-89.64,131.77c.44,4.89.68,9.83.68,14.83a163.32,163.32,0,0,1-69.11,133.51c25.83,17.56,57.2,30,90.79,30,89.11,0,161.17-74.4,161.17-163.51a161.361,161.361,0,0,0-93.917-146.612Z"/><path class="f" d="M257.89,187.74a163.34,163.34,0,0,1,68.43,118.68A161.54,161.54,0,0,0,416,174.65a161.48,161.48,0,0,0-158.07,13.09Z"/><path class="g" d="M327,321.25c0-5-.24-9.94-.68-14.83a161.76,161.76,0,0,1-138.65,1.91q-.51,6.39-.52,12.92a161.18,161.18,0,0,0,70.74,133.51A163.29,163.29,0,0,0,327,321.25Z"/><path class="h" d="M257.89,187.74a161.19,161.19,0,0,0-70.22,120.59,161.76,161.76,0,0,0,138.65-1.91A163.34,163.34,0,0,0,257.89,187.74Z"/></g></svg>