<svg id="Layer_1" data-name="Layer 1" xmlns="http://www.w3.org/2000/svg" viewBox="0 0 653.27 76.95"><title>logoblack</title><path d="M9,85.69V14.31H24.12V73.19h29v12.5Z" transform="translate(-8.98 -9.72)"/><path d="M89,86.67q-13.19,0-20.6-7.28T61,58.79q0-13.73,6.86-21.22t19-7.49q11.57,0,18,6.59t6.45,18.21v7.23H76.07q.25,6.35,3.76,9.91t9.87,3.57a41.14,41.14,0,0,0,9.32-1,46.25,46.25,0,0,0,9.18-3.27V82.81a34.68,34.68,0,0,1-8.35,2.91A52.94,52.94,0,0,1,89,86.67Zm-2.1-46a9.43,9.43,0,0,0-7.42,3q-2.68,3-3.07,8.52H97.31q-.09-5.52-2.88-8.52A9.72,9.72,0,0,0,86.91,40.67Z" transform="translate(-8.98 -9.72)"/><path d="M162.06,85.69l-2-7h-.78a15.71,15.71,0,0,1-6.79,5.88,23.09,23.09,0,0,1-10,2.08q-9.61,0-14.5-5.15T123.1,66.7V31.1H138V63q0,5.91,2.1,8.86t6.69,3c4.16,0,7.18-1.39,9-4.17s2.78-7.4,2.78-13.84V31.1h14.9V85.69Z" transform="translate(-8.98 -9.72)"/><path d="M239.5,85.69H224.61V53.81q0-5.91-2.1-8.86t-6.69-3q-6.25,0-9,4.18T204,60V85.69H189.11V31.1h11.38l2,7h.83a15.81,15.81,0,0,1,6.86-6,23.38,23.38,0,0,1,9.94-2q9.51,0,14.45,5.15T239.5,50.1Z" transform="translate(-8.98 -9.72)"/><path d="M279.54,86.67q-13.19,0-20.6-7.28t-7.43-20.6q0-13.73,6.86-21.22t19-7.49q11.58,0,18,6.59t6.45,18.21v7.23H266.6q.24,6.35,3.76,9.91t9.86,3.57a41.17,41.17,0,0,0,9.33-1,46.25,46.25,0,0,0,9.18-3.27V82.81a34.84,34.84,0,0,1-8.35,2.91A52.94,52.94,0,0,1,279.54,86.67Zm-2.1-46a9.42,9.42,0,0,0-7.42,3q-2.68,3-3.08,8.52h20.9q-.09-5.52-2.88-8.52A9.72,9.72,0,0,0,277.44,40.67Z" transform="translate(-8.98 -9.72)" /><path d="M352,69.48q0,8.4-5.83,12.8t-17.46,4.39a54.6,54.6,0,0,1-10.16-.81,38,38,0,0,1-7.86-2.36V71.19A52.43,52.43,0,0,0,320,74.46a37.85,37.85,0,0,0,9.16,1.32q8.1,0,8.1-4.69a3.88,3.88,0,0,0-1.07-2.85,15.15,15.15,0,0,0-3.71-2.49q-2.64-1.4-7-3.25a43.86,43.86,0,0,1-9.25-4.88,13.77,13.77,0,0,1-4.3-5.15,17,17,0,0,1-1.34-7.16,13,13,0,0,1,5.64-11.25q5.64-4,16-4a45.34,45.34,0,0,1,19.19,4.3l-4.5,10.74c-2.73-1.17-5.29-2.13-7.66-2.88A24.06,24.06,0,0,0,332,41.11q-6.59,0-6.59,3.57a4.19,4.19,0,0,0,2.12,3.46,57.46,57.46,0,0,0,9.31,4.35,43.69,43.69,0,0,1,9.37,4.83,14.39,14.39,0,0,1,4.4,5.18A16,16,0,0,1,352,69.48Z" transform="translate(-8.98 -9.72)" /><path d="M423.19,85.69,399,22.41h-.39q.69,7.53.69,17.87V85.69H391.6V14.31h12.5l22.61,58.88h.39l22.8-58.88h12.4V85.69H454v-46c0-5.28.23-11,.69-17.19h-.39L429.88,85.69Z" transform="translate(-8.98 -9.72)" /><path d="M503.27,86.67q-11.86,0-18.72-7.23t-6.86-20.06q0-12.94,6.37-20.56t17.11-7.62q10.06,0,15.92,6.62T523,55.27V60.4H486.08q.26,9.42,4.76,14.31c3,3.25,7.26,4.88,12.72,4.88A43,43,0,0,0,520.65,76V83.2a42,42,0,0,1-8.13,2.66A45.41,45.41,0,0,1,503.27,86.67ZM501.07,38a13.22,13.22,0,0,0-10.27,4.2q-3.84,4.2-4.52,11.62h28q0-7.66-3.42-11.74T501.07,38Z" transform="translate(-8.98 -9.72)" /><path d="M573.19,78.52h-.44q-5.61,8.15-16.79,8.15-10.5,0-16.34-7.18t-5.83-20.41q0-13.23,5.86-20.55T556,31.2q10.89,0,16.7,7.91h.63L573,35.25l-.2-3.76V9.72h8.11v76h-6.59ZM557,79.88q8.31,0,12-4.51t3.73-14.58V59.08q0-11.37-3.78-16.23T556.88,38A12.41,12.41,0,0,0,546,43.53q-3.78,5.55-3.78,15.65,0,10.26,3.76,15.48T557,79.88Z" transform="translate(-8.98 -9.72)"/><path d="M597.36,17.68a5.39,5.39,0,0,1,1.37-4.08,5.05,5.05,0,0,1,6.79,0,5.31,5.31,0,0,1,1.41,4.06,5.36,5.36,0,0,1-1.41,4.07,4.73,4.73,0,0,1-3.37,1.35,4.67,4.67,0,0,1-3.42-1.35A5.47,5.47,0,0,1,597.36,17.68Zm8.79,68h-8.1V32.18h8.1Z" transform="translate(-8.98 -9.72)"/><path d="M656.25,85.69l-1.61-7.61h-.39q-4,5-8,6.81a24.27,24.27,0,0,1-9.93,1.78q-8,0-12.48-4.1T619.34,70.9q0-16.22,25.92-17l9.09-.3V50.29q0-6.3-2.71-9.3T643,38q-6.69,0-15.14,4.1l-2.49-6.2A38.13,38.13,0,0,1,634,32.52a37.7,37.7,0,0,1,9.45-1.22q9.57,0,14.18,4.25t4.62,13.62V85.69ZM637.94,80q7.56,0,11.89-4.15t4.32-11.62V59.38l-8.11.34q-9.66.35-13.94,3T627.83,71a8.36,8.36,0,0,0,2.66,6.69Q633.16,80,637.94,80Z" transform="translate(-8.98 -9.72)"/></svg>