<?xml version="1.0" encoding="UTF-8"?>
<svg enable-background="new 0 0 512 512" version="1.1" viewBox="0 0 512 512" xml:space="preserve" xmlns="http://www.w3.org/2000/svg">
		<path d="M501.333,96H10.667C4.779,96,0,100.779,0,106.667s4.779,10.667,10.667,10.667h490.667c5.888,0,10.667-4.779,10.667-10.667    S507.221,96,501.333,96z"/>
		<path d="m501.33 245.33h-490.67c-5.888 0-10.667 4.779-10.667 10.667s4.779 10.667 10.667 10.667h490.67c5.888 0 10.667-4.779 10.667-10.667s-4.78-10.667-10.668-10.667z"/>
		<path d="m501.33 394.67h-490.67c-5.888 0-10.667 4.778-10.667 10.666s4.779 10.667 10.667 10.667h490.67c5.888 0 10.667-4.779 10.667-10.667-1e-3 -5.888-4.78-10.666-10.668-10.666z"/>
</svg>